<?xml version="1.0" encoding="UTF-8"?><svg id="svg8" xmlns="http://www.w3.org/2000/svg" width="157.89mm" height="283.46mm" viewBox="0 0 447.55 803.52"><defs><style>.cls-1{fill:#ff2020;}</style></defs><g id="layer1"><path id="path24" class="cls-1" d="M0,803.42c0-.19,14.41-23.6,32.03-52.01,66.85-107.83,95.99-154.37,96.4-153.93.23.25,1.43,3,2.67,6.11,1.24,3.11,5.48,13.62,9.42,23.35l7.16,17.69-73.35,79.04C33.97,767.13.74,802.94.48,803.23c-.26.3-.48.38-.48.19ZM194.48,720.52c-.83-2.09-4.1-10.17-7.26-17.95-3.17-7.78-7.61-18.72-9.88-24.32-2.27-5.6-10.42-25.71-18.11-44.69-7.69-18.98-16.09-39.72-18.67-46.1-2.58-6.38-6.85-16.94-9.5-23.48-11.75-28.96-30.89-76.22-35.17-86.83-2.57-6.38-10.21-25.22-16.96-41.86-21.84-53.83-24.14-59.52-28.3-69.86-2.25-5.6-6.82-16.89-10.14-25.09-3.32-8.2-5.94-15.01-5.82-15.14.13-.13,1.47,1.37,2.99,3.31,1.52,1.95,8.12,10.29,14.68,18.53,10.1,12.69,27.3,34.37,27.75,34.97.14.18,15.8,3.59,88.77,19.3,21.78,4.69,41.25,8.9,43.27,9.37,2.02.46,22.64,4.92,45.82,9.91,74.29,15.99,81.73,17.62,81.97,17.85.13.13-1.27.23-3.11.22-20.45-.09-178.48,1.13-184.36,1.43-2.18.11-8.88.22-14.9.24l-10.94.04,1.88,2.4c3.55,4.55,16.61,21.02,21.84,27.55,4.76,5.93,60.88,76.95,97.84,123.81,9.36,11.86,14.71,19.1,14.44,19.53-.24.37-2.69,4.49-5.46,9.15-2.77,4.66-5.98,10-7.15,11.87-2.19,3.5-9.46,15.65-24.02,40.16-4.62,7.78-9.59,16.05-11.04,18.39-1.45,2.33-6.03,9.97-10.18,16.97-4.15,7-7.82,13.04-8.16,13.42-.47.52-.99-.24-2.13-3.11h0ZM228.22,544.69c-3.1-3.94-12.88-16.35-21.75-27.57-8.87-11.22-16.04-20.66-15.93-20.99.1-.32,5.78-9.79,12.63-21.04l12.44-20.45,7.45-.32c4.1-.18,28.79-.48,54.88-.66l47.43-.34-44.25,47.7c-24.34,26.24-44.93,48.41-45.76,49.28l-1.51,1.57-5.63-7.17Z"/></g><g id="layer1-2"><path id="path24-2" class="cls-1" d="M447.55.1c0,.19-14.41,23.6-32.03,52.01-66.85,107.84-95.99,154.37-96.4,153.93-.23-.25-1.43-3-2.67-6.11-1.24-3.11-5.48-13.62-9.42-23.35l-7.16-17.69,73.35-79.04C413.58,36.4,446.81.59,447.07.29c.26-.3.48-.38.48-.19ZM253.07,83c.83,2.09,4.1,10.17,7.26,17.95,3.17,7.78,7.61,18.72,9.88,24.32,2.27,5.6,10.42,25.71,18.11,44.69,7.69,18.98,16.09,39.72,18.67,46.1,2.58,6.38,6.85,16.94,9.5,23.48,11.75,28.96,30.89,76.22,35.17,86.83,2.57,6.38,10.21,25.22,16.96,41.86,21.84,53.83,24.14,59.52,28.3,69.86,2.25,5.6,6.82,16.89,10.14,25.09,3.32,8.2,5.94,15.01,5.82,15.14-.13.12-1.47-1.37-2.99-3.31-1.52-1.95-8.12-10.29-14.68-18.53-10.1-12.69-27.3-34.37-27.75-34.97-.14-.18-15.8-3.59-88.77-19.3-21.78-4.69-41.25-8.9-43.27-9.37-2.02-.46-22.64-4.92-45.82-9.91-74.29-15.99-81.73-17.62-81.97-17.85-.13-.13,1.27-.23,3.11-.22,20.45.09,178.48-1.13,184.36-1.43,2.18-.11,8.88-.22,14.9-.24l10.94-.04-1.88-2.4c-3.55-4.55-16.61-21.02-21.84-27.55-4.76-5.93-60.88-76.95-97.84-123.81-9.36-11.86-14.71-19.1-14.44-19.53.24-.37,2.69-4.49,5.46-9.15,2.77-4.66,5.98-10,7.15-11.87,2.19-3.5,9.46-15.65,24.02-40.16,4.62-7.78,9.59-16.05,11.04-18.39,1.45-2.33,6.03-9.97,10.18-16.97,4.15-7,7.82-13.04,8.16-13.42.47-.52.99.24,2.13,3.11h0ZM219.33,258.84c3.1,3.94,12.88,16.35,21.75,27.57,8.87,11.22,16.04,20.66,15.93,20.99-.1.32-5.78,9.79-12.63,21.04l-12.44,20.45-7.45.32c-4.1.18-28.79.48-54.88.66l-47.43.34,44.25-47.7c24.34-26.24,44.93-48.41,45.76-49.28l1.51-1.57,5.63,7.17Z"/></g></svg>